<svg fill="#eb0909" xmlns="http://www.w3.org/2000/svg" viewBox="0 0 24 24">
    <path d="M7.182 10.231a.75.75 0 0 1-.37.995 5.251 5.251 0 1 0 7.273 6.087.75.75 0 0 1 1.452.374 6.75 6.75 0 1 1-9.35-7.825.75.75 0 0 1 .995.37z"/>
    <path d="M8.917 5.255a.75.75 0 0 1 .828.662l.921 8.287 6.784-.452a.75.75 0 0 1 .774.55l1.349 4.948h.927a.75.75 0 0 1 0 1.5H19a.75.75 0 0 1-.724-.553l-1.338-4.908-6.888.46a.75.75 0 0 1-.795-.666l-1-9a.75.75 0 0 1 .662-.828z"/>
    <path d="M9 2.75a1.25 1.25 0 1 0 0 2.5 1.25 1.25 0 0 0 0-2.5zM6.25 4a2.75 2.75 0 1 1 5.5 0 2.75 2.75 0 0 1-5.5 0zM11.75 10a.75.75 0 0 1 .75-.75h4a.75.75 0 0 1 0 1.5h-4a.75.75 0 0 1-.75-.75z"/>
</svg>